# xmcd CD database file
#
# Track frame offsets:
#	150
#	17860
#	39243
#	53394
#	70325
#	86641
#	107121
#	128682
#	140653
#	162409
#	176257
#	201965
#
# Disc length: 3088 seconds
#
# Revision: 0
# Processed by: cddbd v1.4PL0 Copyright (c) Steve Scherf et al.
# Submitted via: CDex 1.50beta10
#
DISCID=9e0c0e0c
DTITLE=Johnny Shines - Takin' The Blues Back South
DYEAR=2000
DGENRE=Blues
TTITLE0=I Believe I'll Make A Change
TTITLE1=Nobody's Fault But Mine
TTITLE2=The Devil's Daughter
TTITLE3=Back To The Steel Mill
TTITLE4=Blood Ran Like Wine
TTITLE5=Abide My Wish
TTITLE6=Mean Black Gobbler (With Luther Johnson)
TTITLE7=Kost Letter Blues
TTITLE8=Freight Train (With Luther Johnson)
TTITLE9=My Best Friend
TTITLE10=The Blue Horizon (With Luther Johnson)
TTITLE11=Mean Black Gobbler (With Luther Johnson)
EXTD=YEAR: 2000
EXTT0=
EXTT1=
EXTT2=
EXTT3=
EXTT4=
EXTT5=
EXTT6=
EXTT7=
EXTT8=
EXTT9=
EXTT10=
EXTT11=
PLAYORDER=
